<?xml version="1.0" encoding="utf-8"?>
<!-- Generator: Adobe Illustrator 19.1.0, SVG Export Plug-In . SVG Version: 6.00 Build 0)  -->
<svg version="1.1" id="图层_1" xmlns="http://www.w3.org/2000/svg" xmlns:xlink="http://www.w3.org/1999/xlink" x="0px" y="0px"
	 viewBox="0 0 300 300" style="enable-background:new 0 0 300 300;" xml:space="preserve">
<style type="text/css">
	.st0{fill:#3A92FF;}
	.st1{fill:#FFFFFF;}
</style>
<path class="st0" d="M270,75.8H30c-16.6,0-30,13.5-30,30V258c0,16.6,13.5,30,30,30h240c16.6,0,30-13.5,30-30V105.9
	C300,89.3,286.5,75.8,270,75.8L270,75.8z"/>
<path class="st0" d="M30.4,59.3h238.3c4.5,0,8.2-3.7,8.2-8.2s-3.7-8.2-8.2-8.2H30.4c-4.5,0-8.2,3.7-8.2,8.2
	C22.2,55.6,25.9,59.3,30.4,59.3L30.4,59.3z"/>
<path class="st0" d="M59.3,27.5h183.2c4.5,0,8.2-3.7,8.2-8.2S247,11,242.5,11H59.3c-4.5,0-8.2,3.7-8.2,8.2
	C51,23.8,54.7,27.5,59.3,27.5L59.3,27.5z"/>
<path class="st1" d="M188.7,179.1h-26.3v-8.5l31.6-37.6c2.9-3.5,2.5-8.7-1-11.6c-3.5-2.9-8.7-2.5-11.6,1l-29.7,35.3l-29.6-35.3
	c-2.9-3.5-8.2-3.9-11.6-1c-3.5,2.9-3.9,8.2-1,11.6l36,42.7c0.2,0.2,0.3,0.3,0.5,0.5v2.8h-27.4c-4.5,0-8.2,3.7-8.2,8.2
	s3.7,8.2,8.2,8.2H146v12.4h-19.2c-4.5,0-8.2,3.7-8.2,8.2c0,4.5,3.7,8.2,8.2,8.2H146v24.8c0,4.5,3.7,8.2,8.2,8.2
	c4.5,0,8.2-3.7,8.2-8.2v-24.7h17.9c4.5,0,8.2-3.7,8.2-8.2c0-4.5-3.7-8.2-8.2-8.2h-17.9v-12.4h26.3c4.5,0,8.2-3.7,8.2-8.2
	C197,182.7,193.3,179.1,188.7,179.1L188.7,179.1z"/>
</svg>
