<?xml version="1.0" encoding="utf-8"?>
<!-- Generator: Adobe Illustrator 19.1.0, SVG Export Plug-In . SVG Version: 6.00 Build 0)  -->
<svg version="1.1" id="图层_1" xmlns="http://www.w3.org/2000/svg" xmlns:xlink="http://www.w3.org/1999/xlink" x="0px" y="0px"
	 viewBox="0 0 300 300" style="enable-background:new 0 0 300 300;" xml:space="preserve">
<style type="text/css">
	.st0{fill:#999999;}
</style>
<path class="st0" d="M269.9,75.9H30.1C13.5,75.9,0,89.3,0,105.9v152.2c0,16.6,13.5,30.1,30.1,30.1h239.9c16.6,0,30.1-13.5,30.1-30.1
	V105.9C299.9,89.3,286.5,75.9,269.9,75.9L269.9,75.9z M284.5,259.1c0,7.5-6.1,13.5-13.5,13.5H29.3c-7.5,0-13.5-6.1-13.5-13.5v-155
	c0-7.5,6.1-13.5,13.5-13.5h241.6c7.5,0,13.5,6.1,13.5,13.5L284.5,259.1L284.5,259.1z"/>
<path class="st0" d="M188.7,179h-26.2v-8.5l31.6-37.5c3-3.5,2.5-8.7-1-11.6s-8.7-2.5-11.6,1l-29.6,35.2l-29.7-35.2
	c-3-3.5-8.2-4-11.6-1c-3.5,3-4,8.1-1,11.6l36,42.8c0.1,0.2,0.4,0.3,0.5,0.5v2.9h-27.5c-4.6,0-8.3,3.7-8.3,8.3s3.7,8.3,8.3,8.3H146
	V208h-19.2c-4.6,0-8.3,3.7-8.3,8.3s3.7,8.3,8.3,8.3H146v24.8c0,4.6,3.7,8.3,8.3,8.3s8.3-3.7,8.3-8.3v-24.8h17.9
	c4.6,0,8.3-3.7,8.3-8.3s-3.7-8.3-8.3-8.3h-17.9v-12.4h26.2c4.6,0,8.3-3.7,8.3-8.3C196.9,182.7,193.2,179,188.7,179L188.7,179z"/>
<path class="st0" d="M30.4,59.3h238.2c4.6,0,8.3-3.7,8.3-8.3s-3.7-8.3-8.3-8.3H30.4c-4.6,0-8.3,3.7-8.3,8.3S25.9,59.3,30.4,59.3
	L30.4,59.3z"/>
<path class="st0" d="M59.4,27.5h183.1c4.6,0,8.3-3.7,8.3-8.3S247,11,242.4,11H59.4c-4.6,0-8.3,3.7-8.3,8.3
	C51.1,23.8,54.8,27.5,59.4,27.5L59.4,27.5z"/>
</svg>
