<?xml version="1.0" standalone="no"?><!DOCTYPE svg PUBLIC "-//W3C//DTD SVG 1.1//EN" "http://www.w3.org/Graphics/SVG/1.1/DTD/svg11.dtd"><svg t="1494837025076" class="icon" style="" viewBox="0 0 1030 1024" version="1.1" xmlns="http://www.w3.org/2000/svg" p-id="7357" xmlns:xlink="http://www.w3.org/1999/xlink" width="201.171875" height="200"><defs><style type="text/css"></style></defs><path d="M512 0C229.286957 0 0 229.286957 0 512c0 142.469565 57.878261 269.356522 151.373913 362.852174 2.226087-2.226087 4.452174-2.226087 6.678261-4.452174 8.904348-6.678261 73.46087-53.426087 129.113043-93.495652 11.130435-8.904348 26.713043-6.678261 35.617392 4.452174l117.982608 144.695652 429.634783-320.556522-13.356522-20.034782c-4.452174-6.678261-4.452174-13.356522-2.226087-20.034783 2.226087-6.678261 8.904348-11.130435 17.808696-13.356522l95.721739-11.130435h2.226087c6.678261 0 13.356522 2.226087 17.808696 8.904348 4.452174 6.678261 4.452174 13.356522 2.226087 20.034783l-37.843479 86.817391c-2.226087 6.678261-8.904348 11.130435-17.808695 13.356522h-2.226087c-6.678261 0-13.356522-2.226087-17.808696-8.904348l-11.130435-15.582609-447.443478 333.913044c-4.452174 4.452174-8.904348 4.452174-15.582609 4.452174-6.678261 0-15.582609-2.226087-20.034782-8.904348l-117.982609-144.695652c-64.556522 48.973913-93.495652 69.008696-106.852174 77.913043 89.043478 71.234783 200.347826 113.530435 322.782609 113.530435 282.713043 0 512-229.286957 512-512C1024 229.286957 794.713043 0 512 0z m218.156522 162.504348c-2.226087 2.226087-4.452174 4.452174-4.452174 6.678261l-140.243478 215.930434H667.826087c24.486957 0 37.843478 11.130435 37.843478 31.165218-2.226087 15.582609-15.582609 24.486957-37.843478 26.713043h-120.208696v62.330435H667.826087c24.486957 0 37.843478 11.130435 37.843478 31.165218-2.226087 15.582609-15.582609 24.486957-37.843478 26.713043h-120.208696v135.791304c0 22.26087-13.356522 33.391304-37.843478 33.391305s-37.843478-11.130435-37.843478-33.391305v-135.791304H356.173913c-22.26087-2.226087-35.617391-11.130435-37.843478-26.713043 0-20.034783 13.356522-31.165217 37.843478-31.165218h120.208696v-62.330435H356.173913c-22.26087-2.226087-35.617391-11.130435-37.843478-26.713043 0-20.034783 13.356522-31.165217 37.843478-31.165218h82.365217l-140.243478-215.930434c0-2.226087-2.226087-4.452174-4.452174-6.678261-4.452174-8.904348-8.904348-17.808696-11.130435-26.713044 2.226087-17.808696 13.356522-28.93913 31.165218-31.165217 17.808696 0 31.165217 8.904348 40.069565 24.486956L512 365.078261l158.052174-235.965218c8.904348-15.582609 22.26087-24.486957 40.069565-24.486956 17.808696 2.226087 28.93913 13.356522 31.165218 31.165217 0 4.452174-4.452174 13.356522-11.130435 26.713044z" fill="#3a92ff" p-id="7358"></path></svg>
