<?xml version="1.0" encoding="utf-8"?>
<!-- Generator: Adobe Illustrator 19.1.0, SVG Export Plug-In . SVG Version: 6.00 Build 0)  -->
<svg version="1.1" id="图层_1" xmlns="http://www.w3.org/2000/svg" xmlns:xlink="http://www.w3.org/1999/xlink" x="0px" y="0px"
	 viewBox="0 0 300 300" style="enable-background:new 0 0 300 300;" xml:space="preserve">
<style type="text/css">
	.st0{fill:#A0A0A0;}
</style>
<path class="st0" d="M296.2,118.7L169.4,18.5c-10.9-8.6-28-8.6-38.9,0L3.8,118.7c-4.3,3.5-5,9.7-1.7,14.1s14.9-0.6,19.3-3.9l3.9-3.2
	v128.9c0,17.1,18.2,30,34,30l194.7,1.1c15.7,0,24.6-12,24.6-30V127l3.7,2.8c1.8,1.4,6.5,5.7,8.7,5.7c3,0,5-0.2,6.9-2.8
	C301.2,128.4,300.5,122.1,296.2,118.7L296.2,118.7z M140,270.8v-64c0-2.8,6.9-5.8,11.9-5.8s11.5,3.1,11.5,5.8v63.9L140,270.8
	L140,270.8L140,270.8z M263.1,260.8c0,6.6-1.8,10-6.1,10H179c0-0.2-0.2-0.2-0.2-0.4v-63.6c0-11.6-7-24.1-27.6-24.1
	S125,195.2,125,206.8v63.6c0,0.2,0.2,0.2,0.2,0.4H53.9c-6.3,0-14-5.4-14-10v-150l102.7-81.1c3.7-2.9,10.4-2.9,14.1,0L263,111.2
	L263.1,260.8L263.1,260.8L263.1,260.8z"/>
</svg>
