<?xml version="1.0" standalone="no"?><!DOCTYPE svg PUBLIC "-//W3C//DTD SVG 1.1//EN"
  "http://www.w3.org/Graphics/SVG/1.1/DTD/svg11.dtd">
<svg t="1494837579307" class="icon" style="" viewBox="0 0 1024 1024" version="1.1" xmlns="http://www.w3.org/2000/svg"
     p-id="4802" width="200" height="200">
  <defs>
    <style type="text/css"></style>
  </defs>
  <path
    d="M919.911033 125.776834L543.7321 4.990129c-20.472323-6.653505-42.991878-6.653505-63.4642 0L104.088967 125.776834c-31.7321 10.236161-53.228039 39.409222-53.22804 72.676746v264.604773c0 152.518805 74.21217 297.872298 198.581532 388.462327l217.006623 157.636886C479.756091 1018.881919 495.622142 1024 512 1024c16.889666 0 32.243909-5.118081 45.550918-14.842434l217.006623-157.636886c124.369361-90.590029 198.581532-235.943521 198.581532-388.462327V198.45358c0-33.267525-21.495939-62.440585-53.22804-72.676746z m-158.660502 557.35899c-3.582657 5.118081-8.188929 7.677121-14.842434 7.677121-6.141697 0-15.354242-4.094465-28.149444-11.771586s-28.149444-19.448707-47.086343-34.802948c-15.354242-12.283394-30.196676-26.102212-45.03911-41.456454-14.842434-15.354242-28.661252-31.7321-42.48007-49.645383v157.636886c0 13.30701-6.653505 19.960515-20.472323 19.960515-13.30701 0-19.960515-6.653505-19.960515-19.960515V545.459453c-12.283394 16.377858-26.102212 32.755717-40.944645 48.109958-14.842434 15.354242-30.708484 29.684868-46.574535 42.991879-42.48007 33.267525-70.629514 49.645383-83.424716 49.645382-3.070848 0-5.629889-0.511808-7.677121-1.535424s-4.094465-2.55904-5.629889-4.094464v28.661252c0 14.330626-7.165313 20.984131-20.98413 20.984131-13.818818 0-20.472323-7.165313-20.472323-20.984131V456.916656c-1.023616 1.023616-1.535424 1.535424-1.535425 2.047233v-0.511809l-4.094464 7.677122c-10.236161 17.401474-16.889666 28.149444-20.472323 31.220292-3.582657 2.55904-7.165313 4.606273-10.74797 5.629889-3.582657 1.535424-7.165313 2.047232-11.259777 2.047232l-0.511808-0.511808c-3.070848-0.511808-6.141697-2.047232-8.700737-4.606273-2.55904-2.047232-4.094465-5.118081-5.118081-9.212545-1.023616-3.582657-0.511808-8.188929 1.023616-13.30701 1.535424-5.118081 4.606273-11.259778 9.212545-17.913282 22.007747-32.755717 39.409222-65.511433 53.22804-97.755342C331.843559 328.964638 343.103336 294.161689 350.780457 256.287892c5.118081-20.984131 12.795202-31.220292 23.031364-31.220292 13.30701 0 19.960515 8.700737 19.960514 25.590403 0 7.677121-3.582657 24.054979-11.259777 49.645383-3.070848 11.259778-6.653505 22.519555-10.74797 34.291141-3.582657 11.259778-8.188929 23.031363-13.30701 34.291141v285.588904c5.118081-6.141697 13.30701-11.259778 24.05498-16.377858 10.74797-5.118081 22.007747-12.795202 34.802949-22.007747 12.795202-9.724353 26.102212-20.984131 39.921029-33.779333 12.283394-11.259778 24.054979-23.031363 35.314757-35.826565 11.259778-12.795202 22.007747-26.102212 32.243909-39.409222H386.607022c-12.795202 0-18.936899-6.141697-18.936898-17.913282 0-8.700737 1.535424-14.842434 4.606272-17.913283 3.070848-3.070848 7.677121-4.606273 14.330626-4.606272h157.125078v-43.503686h-81.889291c-15.354242 0-26.61402-3.582657-33.267525-10.74797-6.653505-7.165313-10.236161-18.936899-10.236161-35.314757v-86.495564c0-15.86605 3.582657-27.125828 10.747969-34.291141 7.165313-7.165313 17.913283-10.74797 32.755717-10.747969h204.211421c15.354242 0 26.102212 3.582657 32.243908 10.236161 6.653505 6.653505 9.724353 18.425091 9.724354 35.314757v85.471948c0 16.377858-3.582657 28.149444-10.236162 35.314757-6.653505 7.165313-17.401474 10.74797-32.243908 10.747969h-81.889292v43.503687h155.589654c12.795202 0 19.448707 6.653505 19.448707 20.472322 0 13.30701-6.653505 19.960515-19.448707 19.960515H594.912908c10.74797 13.818818 22.007747 27.125828 33.779332 40.432838 11.771586 13.30701 23.543171 25.590404 34.291141 35.826565 13.818818 13.30701 27.125828 25.078596 39.92103 35.314757 12.795202 10.236161 25.078596 17.913283 36.338373 24.054979 17.401474 10.74797 26.102212 19.960515 26.102212 27.637636 1.023616 4.094465-0.511808 8.188929-4.094465 13.30701z"
    fill="#3a92ff" p-id="4803"></path>
  <path
    d="M667.077846 376.562789v-75.235787c0-7.165313-3.070848-10.74797-8.700737-10.747969H467.984506c-5.629889 0-8.700737 3.582657-8.700737 10.747969v75.235787c0 7.165313 3.070848 10.74797 8.700737 10.747969h190.904411c5.629889 0 8.188929-3.582657 8.188929-10.747969z"
    fill="#3a92ff" p-id="4804"></path>
</svg>
