<?xml version="1.0" standalone="no"?><!DOCTYPE svg PUBLIC "-//W3C//DTD SVG 1.1//EN" "http://www.w3.org/Graphics/SVG/1.1/DTD/svg11.dtd"><svg t="1494837535365" class="icon" style="" viewBox="0 0 1024 1024" version="1.1" xmlns="http://www.w3.org/2000/svg" p-id="4016" xmlns:xlink="http://www.w3.org/1999/xlink" width="200" height="200"><defs><style type="text/css"></style></defs><path d="M788.48 239.908571l-251.611429-90.697142c-16.091429-5.851429-33.645714-5.851429-49.737142 0l-251.611429 90.697142c-29.257143 10.24-48.274286 38.034286-48.274286 68.754286v229.668572c0 2.925714 1.462857 87.771429 95.085715 182.857142 86.308571 86.308571 193.097143 147.748571 197.485714 149.211429 1.462857 1.462857 2.925714 1.462857 4.388571 1.462857 8.777143 2.925714 17.554286 4.388571 27.794286 4.388572s19.017143-1.462857 27.794286-4.388572c1.462857 0 2.925714-1.462857 4.388571-1.462857 4.388571-2.925714 111.177143-62.902857 197.485714-149.211429 93.622857-93.622857 95.085714-178.468571 95.085715-182.857142V308.662857C836.754286 277.942857 817.737143 250.148571 788.48 239.908571zM778.24 539.794286c0 0-1.462857 65.828571-77.531429 140.434285-74.605714 74.605714-166.765714 128.731429-182.857142 138.971429C516.388571 819.2 513.462857 819.2 512 819.2s-4.388571 0-5.851429-1.462857c-16.091429-10.24-108.251429-64.365714-182.857142-138.971429-76.068571-76.068571-77.531429-138.971429-77.531429-140.434285V308.662857c0-5.851429 4.388571-11.702857 10.24-13.165714L507.611429 204.8c2.925714-1.462857 7.314286-1.462857 10.24 0l251.611428 90.697143c5.851429 1.462857 10.24 7.314286 10.24 13.165714V539.794286z" fill="#999999" p-id="4017"></path><path d="M418.377143 346.697143c1.462857-11.702857-5.851429-23.405714-17.554286-24.868572-11.702857-1.462857-23.405714 5.851429-24.868571 17.554286 0 0-11.702857 67.291429-38.034286 121.417143-5.851429 10.24 0 23.405714 10.24 29.257143 2.925714 1.462857 5.851429 1.462857 8.777143 1.462857 2.925714 0 5.851429 0 7.314286-1.462857v156.525714c0 11.702857 10.24 21.942857 21.942857 21.942857s21.942857-10.24 21.942857-21.942857V406.674286c0-2.925714 0-5.851429-1.462857-8.777143C413.988571 368.64 418.377143 348.16 418.377143 346.697143z" fill="#999999" p-id="4018"></path><path d="M683.154286 500.297143c0-11.702857-10.24-21.942857-21.942857-21.942857H570.514286v-20.48h70.217143c11.702857 0 21.942857-10.24 21.942857-21.942857v-83.382858c0-11.702857-10.24-21.942857-21.942857-21.942857H456.411429c-11.702857 0-21.942857 10.24-21.942858 21.942857v83.382858c0 11.702857 10.24 21.942857 21.942858 21.942857H526.628571v20.48h-92.16c-11.702857 0-21.942857 10.24-21.942857 21.942857s10.24 21.942857 21.942857 21.942857h76.068572c-32.182857 40.96-86.308571 83.382857-86.308572 84.845714-8.777143 7.314286-10.24 21.942857-2.925714 30.72 4.388571 5.851429 10.24 8.777143 17.554286 8.777143 4.388571 0 10.24-1.462857 13.165714-4.388571 2.925714-1.462857 40.96-33.645714 74.605714-70.217143v74.605714c0 11.702857 10.24 21.942857 21.942858 21.942857S570.514286 658.285714 570.514286 646.582857v-74.605714c33.645714 36.571429 71.68 67.291429 74.605714 70.217143 4.388571 2.925714 8.777143 4.388571 13.165714 4.388571 5.851429 0 13.165714-2.925714 17.554286-8.777143 7.314286-8.777143 5.851429-23.405714-2.925714-30.72 0 0-54.125714-43.885714-86.308572-84.845714h76.068572C672.914286 522.24 683.154286 513.462857 683.154286 500.297143zM478.354286 415.451429v-39.497143h140.434285v39.497143H478.354286z" fill="#999999" p-id="4019"></path></svg>