<?xml version="1.0" encoding="UTF-8" standalone="no"?>
<svg width="70px" height="70px" viewBox="0 0 70 70" version="1.1" xmlns="http://www.w3.org/2000/svg" xmlns:xlink="http://www.w3.org/1999/xlink">
    <!-- Generator: Sketch 39.1 (31720) - http://www.bohemiancoding.com/sketch -->
    <title>Group 5</title>
    <desc>Created with Sketch.</desc>
    <defs></defs>
    <g id="Page-1" stroke="none" stroke-width="1" fill="none" fill-rule="evenodd">
        <g id="理财详情" transform="translate(-346.000000, -656.000000)">
            <g id="Group-5" transform="translate(346.000000, 656.000000)">
                <circle id="Oval-Copy" fill="#8F96FF" cx="35" cy="35" r="35"></circle>
                <path d="M35.2085526,40.7842105 C36.0436445,41.0789488 37.0260908,41.5824526 38.1559211,42.2947368 C39.5313665,43.1543903 40.2190789,43.9403473 40.2190789,44.6526316 C40.2190789,45.3894774 39.8875033,46.0771898 39.2243421,46.7157895 C38.5611809,47.4035122 37.8243462,47.7473684 37.0138158,47.7473684 C36.27697,47.7473684 35.7243439,47.3666705 35.3559211,46.6052632 C34.3980215,44.6403411 33.6980285,43.3631608 33.2559211,42.7736842 C32.9857443,42.4052613 32.8506579,42.0736857 32.8506579,41.7789474 C32.8506579,41.3614014 33.0103054,41.0298258 33.3296053,40.7842105 L25.3348684,40.7842105 C23.9348614,40.7842105 23.013818,40.391232 22.5717105,39.6052632 C22.3015337,39.1385942 22.1664474,38.2912342 22.1664474,37.0631579 L22.1664474,25.6421053 C22.1664474,24.4140289 22.6208288,23.6035107 23.5296053,23.2105263 C24.0453973,22.9649111 24.9664407,22.8421053 26.2927632,22.8421053 L30.7875,22.8421053 C31.0331153,22.3999978 31.2787268,21.8473717 31.5243421,21.1842105 C31.8436419,20.3491186 32.1506564,19.8087732 32.4453947,19.5631579 C32.9120637,19.1701735 33.7103014,18.9736842 34.8401316,18.9736842 C37.4436534,18.9736842 38.7453947,19.5508714 38.7453947,20.7052632 C38.7453947,21.1719322 37.9839988,21.8842057 36.4611842,22.8421053 L45.9296053,22.8421053 C47.3296123,22.8421053 48.2506557,23.2350838 48.6927632,24.0210526 C48.9629399,24.4877216 49.0980263,25.3350816 49.0980263,26.5631579 L49.0980263,37.9842105 C49.0980263,39.2122868 48.6436449,40.0228051 47.7348684,40.4157895 C47.2190764,40.6614047 46.2980329,40.7842105 44.9717105,40.7842105 L35.2085526,40.7842105 Z M42.7611842,30.4315789 L28.4664474,30.4315789 L28.4664474,33.0842105 L42.7611842,33.0842105 L42.7611842,30.4315789 Z M28.4664474,27.9263158 L42.7611842,27.9263158 L42.7611842,26.0842105 C42.7611842,25.5684185 42.5032921,25.3105263 41.9875,25.3105263 L29.2401316,25.3105263 C28.7243395,25.3105263 28.4664474,25.5684185 28.4664474,26.0842105 L28.4664474,27.9263158 Z M42.7611842,35.5157895 L28.4664474,35.5157895 L28.4664474,37.5421053 C28.4664474,38.0333358 28.7243395,38.2789474 29.2401316,38.2789474 L41.9875,38.2789474 C42.5032921,38.2789474 42.7611842,38.0333358 42.7611842,37.5421053 L42.7611842,35.5157895 Z M25.8138158,42.9578947 C25.8138158,46.1017701 25.457679,48.5456053 24.7453947,50.2894737 C24.2787257,51.2964963 23.5050493,51.8 22.4243421,51.8 C21.6629348,51.8 20.9752224,51.5789496 20.3611842,51.1368421 C19.698023,50.6456116 19.3664474,50.0438632 19.3664474,49.3315789 C19.3664474,48.8157869 19.6243395,48.2263191 20.1401316,47.5631579 C21.1962772,46.2122739 22.2769682,44.4807123 23.3822368,42.3684211 C23.6524136,41.8035059 24.0699533,41.5210526 24.6348684,41.5210526 C25.4208373,41.5210526 25.8138158,41.9999952 25.8138158,42.9578947 L25.8138158,42.9578947 Z M46.1875,41.2263158 C46.8260997,41.2263158 47.9681935,42.1964815 49.6138158,44.1368421 C51.3822457,46.1754488 52.2664474,47.6245571 52.2664474,48.4842105 C52.2664474,49.2210563 51.9225912,49.8842076 51.2348684,50.4736842 C50.5471457,51.0631608 49.7611886,51.3578947 48.8769737,51.3578947 C48.0664433,51.3578947 47.4892561,51.0754414 47.1453947,50.5105263 C46.9489025,50.1912265 46.7769744,49.5894781 46.6296053,48.7052632 C46.3594285,46.8631487 45.8559247,44.9965007 45.1190789,43.1052632 C44.9962713,42.8350864 44.9348684,42.6140359 44.9348684,42.4421053 C44.9348684,41.6315749 45.3524081,41.2263158 46.1875,41.2263158 L46.1875,41.2263158 Z M37.4927632,49.5157895 C38.4015396,49.5157895 39.0524103,49.2333362 39.4453947,48.6684211 C39.7155715,48.2999982 39.9366219,47.6368469 40.1085526,46.6789474 C40.2313603,45.868417 40.3910078,45.3280715 40.5875,45.0578947 C40.9067998,44.6403488 41.4962676,44.4315789 42.3559211,44.4315789 C43.1910129,44.4315789 43.9524088,44.6280682 44.6401316,45.0210526 C45.4506619,45.5122832 45.8559211,46.1631538 45.8559211,46.9736842 C45.8559211,48.8649217 45.2787338,50.2771883 44.1243421,51.2105263 C43.4611809,51.7508799 42.3313676,52.0210526 40.7348684,52.0210526 L30.4190789,52.0210526 C29.1418796,52.0210526 28.2453973,51.9105274 27.7296053,51.6894737 C26.8945134,51.2964893 26.4769737,50.5105322 26.4769737,49.3315789 L26.4769737,43.5473684 C26.4769737,41.9508692 27.4962617,41.1526316 29.5348684,41.1526316 C31.6471597,41.1526316 32.7032895,41.9508692 32.7032895,43.5473684 L32.7032895,48.8157895 C32.7032895,49.2824585 32.9489011,49.5157895 33.4401316,49.5157895 L37.4927632,49.5157895 Z" id="息" fill="#FFFFFF"></path>
            </g>
        </g>
    </g>
</svg>