<?xml version="1.0" encoding="UTF-8" standalone="no"?>
<svg width="70px" height="70px" viewBox="0 0 70 70" version="1.1" xmlns="http://www.w3.org/2000/svg" xmlns:xlink="http://www.w3.org/1999/xlink">
    <!-- Generator: Sketch 39.1 (31720) - http://www.bohemiancoding.com/sketch -->
    <title>Group 4</title>
    <desc>Created with Sketch.</desc>
    <defs></defs>
    <g id="Page-1" stroke="none" stroke-width="1" fill="none" fill-rule="evenodd">
        <g id="理财详情" transform="translate(-83.000000, -656.000000)">
            <g id="Group-4" transform="translate(83.000000, 656.000000)">
                <circle id="Oval" fill="#CF90FF" cx="35" cy="35" r="35"></circle>
                <path d="M22.6453947,28.8473684 L20.3980263,28.8473684 C19.5383729,28.8473684 19.1085526,28.4421093 19.1085526,27.6315789 C19.1085526,26.7719255 19.5383729,26.3421053 20.3980263,26.3421053 L22.6453947,26.3421053 L22.6453947,21.3315789 C22.6453947,19.7596413 23.6524022,18.9736842 25.6664474,18.9736842 C27.7787386,18.9736842 28.8348684,19.7596413 28.8348684,21.3315789 L28.8348684,26.3421053 L30.5296053,26.3421053 C31.4138202,26.3421053 31.8559211,26.7596449 31.8559211,27.5947368 C31.8559211,28.4298287 31.4138202,28.8473684 30.5296053,28.8473684 L28.8348684,28.8473684 L28.8348684,34.6684211 C29.841891,34.2263136 30.4436394,34.0052632 30.6401316,34.0052632 C31.4506619,34.0052632 31.8559211,34.4228028 31.8559211,35.2578947 C31.8559211,35.7982483 30.8489136,36.7315723 28.8348684,38.0578947 L28.8348684,48.1894737 C28.8348684,49.7614114 28.5524151,50.8052606 27.9875,51.3210526 C27.4471464,51.7877216 26.3173332,52.0210526 24.5980263,52.0210526 L20.5085526,52.0210526 C19.6734607,52.0210526 19.2559211,51.6035129 19.2559211,50.7684211 C19.2559211,49.9333292 19.6734607,49.5157895 20.5085526,49.5157895 L21.8717105,49.5157895 C22.3875026,49.5157895 22.6453947,49.2578973 22.6453947,48.7421053 L22.6453947,41.6315789 C21.5646876,42.1719325 20.852414,42.4421053 20.5085526,42.4421053 C19.9927606,42.4421053 19.5752209,42.1596519 19.2559211,41.5947368 C18.9611827,41.1035063 18.8138158,40.5385997 18.8138158,39.9 C18.8138158,39.0894696 19.0471468,38.524563 19.5138158,38.2052632 C19.8576772,37.9596479 20.9015264,37.5543888 22.6453947,36.9894737 L22.6453947,28.8473684 Z M33.2927632,36.6578947 C32.4576713,36.6578947 32.0401316,36.2526356 32.0401316,35.4421053 C32.0401316,34.6070134 32.4576713,34.1894737 33.2927632,34.1894737 L48.2138158,34.1894737 C48.9997846,34.1894737 49.6383747,34.4350853 50.1296053,34.9263158 C50.5471512,35.3438617 50.7559211,35.8228043 50.7559211,36.3631579 C50.7559211,36.6087732 50.6331153,37.1245575 50.3875,37.9105263 C49.2576698,41.1526478 47.3541801,43.8789363 44.6769737,46.0894737 C46.2734729,47.4403576 48.5085383,48.6806961 51.3822368,49.8105263 C51.8980289,50.0315801 52.1559211,50.412278 52.1559211,50.9526316 C52.1559211,51.7631619 51.7506619,52.1684211 50.9401316,52.1684211 C50.8173239,52.1684211 50.5225901,52.1192987 50.0559211,52.0210526 C46.9611687,51.3578914 44.0506715,50.1789558 41.3243421,48.4842105 C37.1980057,51.0140477 33.9927746,52.2789474 31.7085526,52.2789474 C30.8980223,52.2789474 30.4927632,51.8736883 30.4927632,51.0631579 C30.4927632,50.5228043 30.9225834,50.0807035 31.7822368,49.7368421 C34.262951,48.7543811 36.3874912,47.5508843 38.1559211,46.1263158 C34.8892381,43.2526172 33.2559211,40.9193072 33.2559211,39.1263158 C33.2559211,38.4140315 33.5997773,37.8368443 34.2875,37.3947368 C34.9015382,36.9771909 35.6506535,36.7684211 36.5348684,36.7684211 C38.2050522,36.7684211 39.261182,37.4561335 39.7032895,38.8315789 C40.2682046,40.3298321 40.8945141,41.5947317 41.5822368,42.6263158 C43.1541745,40.3666554 43.9401316,38.5491297 43.9401316,37.1736842 C43.9401316,36.8298228 43.7682035,36.6578947 43.4243421,36.6578947 L33.2927632,36.6578947 Z M43.6453947,19.8578947 C44.824348,19.8578947 45.6471468,19.9561394 46.1138158,20.1526316 C46.8997846,20.5210545 47.2927632,21.2701698 47.2927632,22.4 L47.2927632,30.1368421 C47.2927632,30.4070189 47.3173243,30.5666664 47.3664474,30.6157895 C47.4155704,30.6649125 47.5874985,30.6894737 47.8822368,30.6894737 C48.1524136,30.6894737 48.3366223,29.9403584 48.4348684,28.4421053 C48.4839915,27.0912213 48.5945167,26.2438614 48.7664474,25.9 C48.9875011,25.4824541 49.5401272,25.2736842 50.4243421,25.2736842 C51.9225952,25.2736842 52.6717105,25.9491161 52.6717105,27.3 C52.6717105,29.8543987 52.1559262,31.5736798 51.1243421,32.4578947 C50.5348655,32.9491253 49.6138221,33.1947368 48.3611842,33.1947368 L44.9717105,33.1947368 C43.9401264,33.1947368 43.1910111,33.0719311 42.7243421,32.8263158 C41.8646887,32.3842083 41.4348684,31.5245678 41.4348684,30.2473684 L41.4348684,22.8421053 C41.4348684,22.4982439 41.2875015,22.3263158 40.9927632,22.3263158 C40.5752172,22.3263158 40.3296056,22.3508769 40.2559211,22.4 C40.1822365,22.4491231 40.1453947,22.59649 40.1453947,22.8421053 L40.1453947,23.5421053 C40.1453947,26.5877345 39.0769844,29.1789367 36.9401316,31.3157895 C35.2945093,32.9859733 33.9068039,33.8210526 32.7769737,33.8210526 C31.9664433,33.8210526 31.5611842,33.4035129 31.5611842,32.5684211 C31.5611842,32.3228058 31.7576735,31.9298273 32.1506579,31.3894737 C33.4032957,29.6947284 34.0296053,27.0666845 34.0296053,23.5052632 C34.0296053,22.2280638 34.1524111,21.3684233 34.3980263,20.9263158 C34.7664492,20.2140315 35.5769674,19.8578947 36.8296053,19.8578947 L43.6453947,19.8578947 Z" id="投" fill="#FFFFFF"></path>
            </g>
        </g>
    </g>
</svg>