<?xml version="1.0" encoding="utf-8"?>
<!-- Generator: Adobe Illustrator 19.1.0, SVG Export Plug-In . SVG Version: 6.00 Build 0)  -->
<svg version="1.1" id="图层_1" xmlns="http://www.w3.org/2000/svg" xmlns:xlink="http://www.w3.org/1999/xlink" x="0px" y="0px"
	 viewBox="-147 270.9 300 300" style="enable-background:new -147 270.9 300 300;" xml:space="preserve">
<style type="text/css">
	.st0{fill:#999999;}
</style>
<g>
	<path class="st0" d="M3.2,427c43,0,77.9-34.9,77.9-77.9c0-43-34.9-77.9-77.9-77.9c-43,0-77.9,34.9-77.9,77.9
		C-74.7,392.2-39.8,427,3.2,427z M3.4,285c36.1,0,65.4,28.7,65.4,64s-29.3,64-65.4,64S-62,384.4-62,349S-32.7,285,3.4,285z"/>
	<path class="st0" d="M35.3,439H-29c-55,0-99.7,45.8-99.7,102.2v6.6c0,23.1,44.6,23.1,99.7,23.1h64.3c55,0,99.7-0.8,99.7-23.1v-6.6
		C135,484.8,90.4,439,35.3,439z M103.2,552.9c-82.6,11-200.6,3.2-208.1-0.3c-8.1-1.4-15.7-6-8-35.5c0,0,20.9-54.3,72-64h88
		c0,0,56.1,8.8,72,72C119.2,525.1,126.6,550,103.2,552.9z"/>
</g>
</svg>
