<?xml version="1.0" encoding="UTF-8" standalone="no"?>
<svg width="70px" height="70px" viewBox="0 0 70 70" version="1.1" xmlns="http://www.w3.org/2000/svg" xmlns:xlink="http://www.w3.org/1999/xlink">
    <!-- Generator: Sketch 39.1 (31720) - http://www.bohemiancoding.com/sketch -->
    <title>Group 6</title>
    <desc>Created with Sketch.</desc>
    <defs></defs>
    <g id="Page-1" stroke="none" stroke-width="1" fill="none" fill-rule="evenodd">
        <g id="理财详情" transform="translate(-589.000000, -656.000000)">
            <g id="Group-6" transform="translate(589.000000, 656.000000)">
                <circle id="Oval-Copy-2" fill="#579CFF" cx="35" cy="35" r="35"></circle>
                <path d="M51.1611842,47.0842105 C51.1611842,48.459656 51.0138173,49.4175412 50.7190789,49.9578947 C50.2278484,50.8666712 49.2208409,51.3210526 47.6980263,51.3210526 L24.8927632,51.3210526 C23.4190716,51.3210526 22.3752224,51.1859663 21.7611842,50.9157895 C20.7296001,50.473682 20.2138158,49.5649192 20.2138158,48.1894737 L20.2138158,24.7947368 C20.2138158,23.3947298 20.3611827,22.4245641 20.6559211,21.8842105 C21.1471516,20.9999956 22.1541591,20.5578947 23.6769737,20.5578947 L46.4822368,20.5578947 C48.3980359,20.5578947 49.6506549,20.8035063 50.2401316,21.2947368 C50.8541697,21.8350904 51.1611842,22.9280619 51.1611842,24.5736842 L51.1611842,47.0842105 Z M27.2138158,23.0263158 C26.8699544,23.0263158 26.648904,23.0754381 26.5506579,23.1736842 C26.4278503,23.2719303 26.3664474,23.5052613 26.3664474,23.8736842 L26.3664474,47.9684211 C26.3664474,48.3368439 26.4278503,48.5701749 26.5506579,48.6684211 C26.648904,48.7666672 26.8699544,48.8157895 27.2138158,48.8157895 L44.1611842,48.8157895 C44.5050456,48.8157895 44.726096,48.7789477 44.8243421,48.7052632 C44.9471497,48.5824555 45.0085526,48.3368439 45.0085526,47.9684211 L45.0085526,23.8736842 C45.0085526,23.5298228 44.9594303,23.3087724 44.8611842,23.2105263 C44.7383766,23.0877187 44.5050456,23.0263158 44.1611842,23.0263158 L27.2138158,23.0263158 Z M43.7559211,40.5631579 C43.7559211,41.9140418 43.5594318,42.8473658 43.1664474,43.3631579 C42.7243399,43.9771961 41.9015411,44.2842105 40.6980263,44.2842105 L31.7822368,44.2842105 C30.4804759,44.2842105 29.5594325,44.1614047 29.0190789,43.9157895 C28.1103025,43.5473666 27.6559211,42.7614095 27.6559211,41.5578947 L27.6559211,30.6157895 C27.6559211,29.4122747 27.7787268,28.5771953 28.0243421,28.1105263 C28.4418881,27.3245575 29.3260897,26.9315789 30.6769737,26.9315789 L39.9611842,26.9315789 C41.5085604,26.9315789 42.540129,27.1771905 43.0559211,27.6684211 C43.5225901,28.1350901 43.7559211,29.0561335 43.7559211,30.4315789 L43.7559211,40.5631579 Z M34.3611842,29.4 C34.0664459,29.4 33.8699566,29.4368417 33.7717105,29.5105263 C33.6734644,29.5842109 33.6243421,29.7929807 33.6243421,30.1368421 L33.6243421,41.0421053 C33.6243421,41.5578973 33.8699537,41.8157895 34.3611842,41.8157895 L37.0138158,41.8157895 C37.5050463,41.8157895 37.7506579,41.5578973 37.7506579,41.0421053 L37.7506579,30.1368421 C37.7506579,29.6456116 37.5050463,29.4 37.0138158,29.4 L34.3611842,29.4 Z" id="回" fill="#FFFFFF"></path>
            </g>
        </g>
    </g>
</svg>